<?xml version="1.0" encoding="utf-8"?>
<!-- Generator: Adobe Illustrator 15.0.0, SVG Export Plug-In . SVG Version: 6.00 Build 0)  -->
<!DOCTYPE svg PUBLIC "-//W3C//DTD SVG 1.1//EN" "http://www.w3.org/Graphics/SVG/1.1/DTD/svg11.dtd">
<svg version="1.1" id="Livello_1" xmlns="http://www.w3.org/2000/svg" xmlns:xlink="http://www.w3.org/1999/xlink" x="0px" y="0px"
	 width="56.69px" height="56.69px" viewBox="0 0 56.69 56.69" enable-background="new 0 0 56.69 56.69" xml:space="preserve">
<g>
	<path fill="#FFFFFF" d="M47.668,1.182H9.384c-4.43,0-8.021,3.591-8.021,8.022v38.282c0,4.431,3.591,8.022,8.021,8.022h38.284
		c4.431,0,8.022-3.592,8.022-8.022V9.204C55.69,4.772,52.099,1.182,47.668,1.182z M4.592,9.059c0-2.32,1.88-4.2,4.2-4.2h39.47
		c2.317,0,4.2,1.88,4.2,4.2v9.832c-3.723-1.234-7.767-0.356-11.646,1.671c-3.33,1.736-7.927,6.826-12.15,7.634
		c-2.41-2.564-4.646-5.287-6.826-7.529c-4.581-4.715-10.903-8.755-17.248-5.818V9.059z M52.462,40.794c0,2.319-1.883,4.2-4.2,4.2
		H8.792c-2.319,0-4.2-1.881-4.2-4.2v-23.22c5.487-4.344,10.946,2.723,12.917,4.791c2.605,2.735,4.924,5.718,7.556,8.428
		c6.23,6.414,14.157,9.768,22.976,7.288c2.723-0.765,2.229-2.663-0.508-1.896c-7.014,1.972-12.491-1.627-17.246-6.326
		c1.514-0.574,2.979-1.346,4.317-2.204c5.726-3.678,11.771-9.208,17.858-4.518V40.794z"/>
	<circle fill="#FFFFFF" cx="35.334" cy="13.231" r="4.343"/>
</g>
</svg>
