<?xml version="1.0" encoding="utf-8"?>
<!-- Generator: Adobe Illustrator 15.0.2, SVG Export Plug-In . SVG Version: 6.00 Build 0)  -->
<!DOCTYPE svg PUBLIC "-//W3C//DTD SVG 1.1//EN" "http://www.w3.org/Graphics/SVG/1.1/DTD/svg11.dtd">
<svg version="1.1" id="Livello_1" xmlns="http://www.w3.org/2000/svg" xmlns:xlink="http://www.w3.org/1999/xlink" x="0px" y="0px"
	 width="56.693px" height="56.693px" viewBox="0 0 56.693 56.693" enable-background="new 0 0 56.693 56.693" xml:space="preserve">
<g>
	<path fill="#FFFFFF" d="M56.632,40.032c0-8.465,0-16.644,0-24.94c0-2.822,0.149-5.692-0.539-7.797
		C54.757,3.217,51.544,0.599,46.749,0C34.461,0,22.172,0,9.883,0C7.031,0.278,4.764,1.418,3.09,3.09C1.531,4.649,0.207,7.11,0,9.881
		c0,12.289,0,24.581,0,36.87c0.228,2.504,1.119,4.388,2.371,5.932c1.24,1.523,2.838,2.742,4.887,3.414
		c2.098,0.684,4.951,0.535,7.764,0.535c8.367,0,16.508,0.002,24.972,0c2.777,0,5.834,0.234,8.086-0.215
		c2.355-0.469,4.035-1.518,5.426-2.91c1.377-1.377,2.441-3.055,2.91-5.391C56.866,45.874,56.632,42.809,56.632,40.032z
		 M28.365,40.117l11.067-2.873l4.646,14.33l-15.75-11.457l-15.75,11.457l6.03-18.516L2.86,21.6l19.474,0.036l6.031-18.517
		l5.995,18.517h19.473L28.365,40.117z"/>
</g>
</svg>
