<?xml version="1.0" encoding="utf-8"?>
<!-- Generator: Adobe Illustrator 15.0.2, SVG Export Plug-In . SVG Version: 6.00 Build 0)  -->
<!DOCTYPE svg PUBLIC "-//W3C//DTD SVG 1.1//EN" "http://www.w3.org/Graphics/SVG/1.1/DTD/svg11.dtd">
<svg version="1.1" id="Livello_1" xmlns="http://www.w3.org/2000/svg" xmlns:xlink="http://www.w3.org/1999/xlink" x="0px" y="0px"
	 width="65.197px" height="42.52px" viewBox="0 0 65.197 42.52" enable-background="new 0 0 65.197 42.52" xml:space="preserve">
<g>
	<rect x="0" fill="#FFFFFF" width="65.197" height="42.52"/>
	<polyline fill="#CF011B" points="65.197,17.008 35.858,17.008 35.858,0 29.338,0 29.338,17.008 0,17.008 0,25.512 29.338,25.512 
		29.338,42.52 35.858,42.52 35.858,25.512 65.197,25.512 	"/>
	<path fill="#CF011B" d="M43.464,28.347h4.859l16.873,11.004v3.169 M21.732,14.173h-4.859L0,3.169V0L21.732,14.173z M21.732,28.347
		h4.859L4.859,42.52H0L21.732,28.347z M43.464,14.173h-4.859L60.337,0h4.859L43.464,14.173z"/>
	<path fill="#00305B" d="M0,28.347v9.419l14.443-9.419 M65.197,28.347v9.419l-14.443-9.419H65.197z M0,14.173V4.754l14.443,9.419H0z
		 M65.197,14.173V4.754l-14.443,9.419H65.197z M27.166,42.52V29.557L7.289,42.52H27.166z M38.031,42.52V29.557L57.908,42.52H38.031z
		 M27.166,0v12.963L7.289,0H27.166z M38.031,0v12.963L57.908,0H38.031z"/>
</g>
</svg>
