<?xml version="1.0" encoding="utf-8"?>
<!-- Generator: Adobe Illustrator 15.0.2, SVG Export Plug-In . SVG Version: 6.00 Build 0)  -->
<!DOCTYPE svg PUBLIC "-//W3C//DTD SVG 1.1//EN" "http://www.w3.org/Graphics/SVG/1.1/DTD/svg11.dtd">
<svg version="1.1" id="Livello_1" xmlns="http://www.w3.org/2000/svg" xmlns:xlink="http://www.w3.org/1999/xlink" x="0px" y="0px"
	 width="56.693px" height="56.693px" viewBox="0 0 56.693 56.693" enable-background="new 0 0 56.693 56.693" xml:space="preserve">
<g id="insta">
	<g>
		<path fill="#FFFFFF" d="M9.883,0c12.289,0,24.578,0,36.866,0c4.795,0.599,8.008,3.217,9.344,7.295
			c0.688,2.104,0.539,4.974,0.539,7.797c0,8.296,0,16.475,0,24.94c0,2.777,0.234,5.842-0.217,8.084
			c-0.469,2.336-1.533,4.014-2.91,5.391c-1.391,1.392-3.071,2.441-5.426,2.91c-2.252,0.449-5.309,0.215-8.086,0.215
			c-8.464,0.002-16.605,0-24.972,0c-2.812,0-5.666,0.148-7.763-0.536c-2.049-0.671-3.647-1.89-4.887-3.414
			C1.119,51.138,0.227,49.255,0,46.751C0,34.462,0,22.17,0,9.881C0.207,7.11,1.531,4.649,3.09,3.09C4.764,1.418,7.031,0.278,9.883,0
			z M52.247,12.469c0-1.283,0.068-2.412-0.18-3.378c-0.676-2.62-2.799-4.596-5.93-4.743c-2.22-0.105-4.587,0-7.113,0
			c-7.003,0-14.313,0-21.345,0c-2.404,0-4.822-0.109-7.15,0C7.393,4.497,5.15,6.518,4.527,9.127c-0.357,1.506-0.18,3.324-0.18,5.14
			c0,1.762,0,3.578,0,5.317c2.959,0,5.918,0,8.877,0c1.524-2.407,3.395-4.498,5.856-6.037c2.437-1.522,5.41-2.659,9.234-2.659
			c5.594,0,9.761,2.418,12.503,5.319c0.979,1.031,1.771,2.185,2.588,3.377c2.947,0,5.893,0,8.84,0
			C52.247,17.231,52.247,14.723,52.247,12.469z M18.973,19.19c-2.103,2.145-3.732,5.229-3.701,9.27
			c0.033,4.12,1.735,7.02,3.881,9.165c2.172,2.172,5.256,3.736,9.309,3.736c4.084,0,6.979-1.771,9.126-3.916
			c2.187-2.188,3.771-5.135,3.771-9.272c0-2.006-0.479-3.812-1.187-5.317c-0.715-1.527-1.536-2.688-2.694-3.844
			c-2.055-2.058-5.262-3.806-9.307-3.738C23.99,15.34,21.047,17.073,18.973,19.19z"/>
		<path fill="#FFFFFF" d="M43.192,6.577c0.719-0.108,1.777-0.037,2.766-0.037c2.117,0,3.476-0.166,4.025,1.438
			c0.229,0.668,0.106,1.711,0.106,2.768c0,1.051,0.107,2.424-0.143,3.09c-0.264,0.697-0.795,1.148-1.402,1.33
			c-0.76,0.228-1.953,0.072-2.838,0.072c-0.908,0-2.057,0.174-2.84-0.072c-0.479-0.151-1.156-0.635-1.4-1.401
			c-0.247-0.773-0.108-1.888-0.108-2.875c0-1.302-0.121-2.55,0.289-3.271C41.927,7.124,42.478,6.684,43.192,6.577z"/>
		<path fill="#FFFFFF" d="M24.041,21.237c1.283-0.783,2.734-1.338,4.851-1.221c2.006,0.11,3.672,0.969,4.852,2.012
			c1.275,1.127,2.156,2.428,2.623,4.205c1.099,4.188-1.174,7.685-3.881,9.271c-1.512,0.886-3.578,1.361-5.605,1.007
			c-1.83-0.322-3.377-1.207-4.491-2.337c-1.062-1.077-2.011-2.7-2.3-4.529c-0.334-2.104,0.189-4.045,1.113-5.568
			c0.021-0.057,0.037-0.002,0.037,0.035c-0.031-0.006-0.035,0.014-0.037,0.037c-0.697,2.766,1.281,5.326,4.062,5.315
			c2.625-0.008,4.674-2.379,4.096-5.102C28.912,22.254,26.758,20.469,24.041,21.237z"/>
	</g>
</g>
</svg>
