<?xml version="1.0" encoding="utf-8"?>
<!-- Generator: Adobe Illustrator 15.0.0, SVG Export Plug-In . SVG Version: 6.00 Build 0)  -->
<!DOCTYPE svg PUBLIC "-//W3C//DTD SVG 1.1//EN" "http://www.w3.org/Graphics/SVG/1.1/DTD/svg11.dtd">
<svg version="1.1" id="Livello_1" xmlns="http://www.w3.org/2000/svg" xmlns:xlink="http://www.w3.org/1999/xlink" x="0px" y="0px"
	 width="56.69px" height="56.69px" viewBox="0 0 56.69 56.69" enable-background="new 0 0 56.69 56.69" xml:space="preserve">
<path fill="#FFFFFF" d="M48.567,25.057c-0.67,0.236-1.842,1.151-2.129,0.421c-0.308-0.775,1.54-1.328,1.977-1.692
	c3.379-2.807,1.909-8.812,0.009-11.915c-0.055-0.004-0.11-0.008-0.168-0.012c-3.752,1.296-8.899,2.732-8.768,8.04
	c0.018,0.704,0.834,2.592-0.271,2.413c-0.467-0.077-0.641-1.421-0.928-2.087c-0.963-2.218-2.602-3.764-5.107-4.428
	c-2.242,1.877-2.534,5.521-1.294,7.955c0.382,0.749,1.823,2.125,1.703,2.9c-0.149,0.974-1.326,0.599-2.498,0.814
	c-1.758,0.321-2.701,1.128-3.627,2.401c-0.341,0.465-1.16,1.492-1.094,2.179c0.09,0.92,2.612,2.424,3.482,2.706
	c3.603,1.174,4.051-2.013,7.109-1.877c-1.59,4.875-4.935,8.187-8.993,9.868c0.29-1.097,0.028-2.589-0.408-3.387
	c-0.238-0.435-0.792-0.755-1.075-1.258c-0.211-0.374-0.171-0.726-0.34-1.036c-0.296-0.538-0.805-1.113-1.146-1.432
	c-1.674-1.562-3.146-1.582-3.665-3.692c-0.202-0.822,0.125-1.296-0.641-1.477c-0.956-0.227-1.236,0.668-1.137,1.675
	c0.308,3.12,2.863,3.204,4.31,5.084c-1.617,0.141-2.99,0.781-3.281,2.261c-0.503,2.562,2.393,4.122,4.386,2.945
	c0.581-0.345,0.786-0.889,1.36-1.321c0.166,1.248-0.45,2.063-0.664,3.138c-1.212,0.756-2.308,1.413-3.623,2.317
	c-0.717,0.495-2.745,1.605-3.164,2.558c-1.04-0.146-2.191-0.242-3.408-0.287V29.328c6.364-0.934,11.303-7.831,11.303-16.207
	c0-4.02-1.141-7.698-3.029-10.543H4.255C2.367,5.423,1.226,9.102,1.226,13.122c0,8.376,4.941,15.274,11.303,16.207v19.504
	c-4.995,0.185-8.837,1.288-8.837,2.624c0,1.467,4.616,2.656,10.311,2.656s10.312-1.189,10.312-2.656
	c0-0.682-1.011-1.303-2.656-1.773c0.052-0.04,0.105-0.082,0.155-0.119c1.428-1.044,2.438-1.821,3.905-2.715
	c0.606-0.368,1.488-1,2.106-1.178c2.359-0.675,5.377,0.219,7.46,1.172c-0.701,0.646-1.808,0.197-2.566,0.638
	c-0.776,0.45-0.999,1.266-1.119,2.514c0.68,0.369,1.4,0.721,2.302,0.601c0.669-0.089,1.177-0.939,1.726-0.621
	c0.1,1.965,0.637,3.553,2.454,4.052c0.11,0.008,0.222,0.017,0.333,0.027c0.341-0.433,0.718-1.273,0.746-2.039
	c0.027-0.752-0.399-1.378-0.261-2.037c0.481,0.118,0.563,0.606,0.77,0.899c0.988,1.405,3.562,1.468,5.249,0.494
	c-0.259-1.678-0.796-3.578-2.364-4.126c-0.559-0.198-1.383,0.004-1.911-0.234c0.318-0.531,1.005-0.476,1.482-0.725
	c0.773-0.4,1.25-0.967,1.651-1.799c-0.404-0.521-0.91-0.976-1.589-1.131c-1.357-0.313-2.421,0.552-3.422,0.821
	c-0.367-0.413-0.129-0.994-0.222-1.444c-0.205-0.989-0.97-1.524-1.774-1.983c-0.822,0.509-1.531,1.228-1.525,2.313
	c0.007,0.896,0.824,1.399,0.749,2.239c-1.429-0.646-3.14-1.051-5.016-1.313c-0.078-0.273,0.321-0.299,0.447-0.384
	c3.296-2.229,6.309-5.396,7.663-9.974c2.62,0.753,1.674,4.142,2.893,5.932c1.095,1.604,2.758,2.131,5.61,2.284
	c1.407-1.766,1.519-4.703,0.51-6.505c-0.433-0.773-1.395-1.417-1.254-2.197c0.146-0.824,1.105-0.663,2.154-0.753
	c3.656-0.316,6.009-2.435,6.465-6.46C54.039,24.547,50.558,24.364,48.567,25.057z M23.916,41.068
	c-0.704,0.032-1.3-0.446-1.329-1.068c-0.028-0.623,0.521-1.153,1.226-1.188c0.706-0.031,1.301,0.447,1.33,1.068
	C25.17,40.505,24.623,41.035,23.916,41.068z M14.002,26.075c0.119-0.884,0.806-0.755,1.574-1.061
	c4.296-1.717,5.949-8.433,3.669-13.049c0.511-2.567,3.514-1.555,3.708-0.378c1.072,6.484-0.303,13.877-7.478,14.743
	c-0.235,0.028-0.477,0.049-0.724,0.063C14.196,26.424,14.002,26.075,14.002,26.075z"/>
</svg>
