<?xml version="1.0" encoding="utf-8"?>
<!-- Generator: Adobe Illustrator 15.0.0, SVG Export Plug-In . SVG Version: 6.00 Build 0)  -->
<!DOCTYPE svg PUBLIC "-//W3C//DTD SVG 1.1//EN" "http://www.w3.org/Graphics/SVG/1.1/DTD/svg11.dtd">
<svg version="1.1" id="Livello_1" xmlns="http://www.w3.org/2000/svg" xmlns:xlink="http://www.w3.org/1999/xlink" x="0px" y="0px"
	 width="56.69px" height="56.69px" viewBox="0 0 56.69 56.69" enable-background="new 0 0 56.69 56.69" xml:space="preserve">
<g>
	<path fill="#FFFFFF" d="M28.396,1.556c-15.034,0-27.221,12.187-27.221,27.22c0,15.032,12.187,27.22,27.221,27.22
		c15.032,0,27.22-12.188,27.22-27.22C55.616,13.742,43.429,1.556,28.396,1.556z M31.49,8.123c2.575,0,4.735,1.783,5.326,4.178
		c0,1.117-1.506,1.736-2.119,0.583c-0.335-1.463-1.645-2.559-3.207-2.559c-1.687,0-3.017,1.135-3.017,3.021
		c0,0.564,0.153,1.089,0.404,1.553c0.513,1.002-1.552,2.374-2.208,1.314c-0.421-0.776-0.673-1.655-0.673-2.597
		C25.997,10.587,28.461,8.123,31.49,8.123z M8.978,18.092c1.971-2.397,5.525-2.745,7.923-0.773c0.746,0.613,1.277,1.385,1.617,2.223
		c0.412,1.208-2.119,2.188-2.579,1.13c-0.203-0.501-0.52-0.963-0.966-1.33c-1.436-1.182-3.071-1.253-4.252,0.183
		c-1.016,1.237-1.001,2.986-0.061,4.203c0.514,1.236-0.957,2.025-1.84,1.298C7.308,23,7.303,20.13,8.978,18.092z M35.184,32.931
		c-8.404,4.73-18.932,5.281-27.705,1.164c-1.594-0.749-0.143-1.854,1.056-1.436c7.768,2.713,18.161,1.205,24.987-2.949
		c2.207-1.344,8.798-5.078,8.336-11.711c-0.104-1.516,3.396-3.378,3.479-1.869C45.891,26.235,38.104,31.286,35.184,32.931z"/>
</g>
</svg>
