<?xml version="1.0" encoding="utf-8"?>
<!-- Generator: Adobe Illustrator 15.0.2, SVG Export Plug-In . SVG Version: 6.00 Build 0)  -->
<!DOCTYPE svg PUBLIC "-//W3C//DTD SVG 1.1//EN" "http://www.w3.org/Graphics/SVG/1.1/DTD/svg11.dtd">
<svg version="1.1" id="fb" xmlns="http://www.w3.org/2000/svg" xmlns:xlink="http://www.w3.org/1999/xlink" x="0px" y="0px"
	 width="56.693px" height="56.693px" viewBox="0 0 56.693 56.693" enable-background="new 0 0 56.693 56.693" xml:space="preserve">
<g>
	<path fill="#FFFFFF" d="M47.201,0H9.495C4.25,0,0,4.25,0,9.493v37.708c0,5.242,4.25,9.492,9.494,9.492h37.707
		c5.242,0,9.492-4.25,9.492-9.492V9.493C56.693,4.25,52.443,0,47.201,0z M44.174,45.827c-3.851,3.567-9.125,5.636-15.406,5.636
		c-9.101,0-16.96-5.223-20.786-12.823C6.404,35.485,5.5,31.944,5.5,28.195c0-3.748,0.904-7.29,2.482-10.444
		C11.807,10.15,19.667,4.928,28.767,4.928c6.281,0,11.529,2.301,15.563,6.05l-6.567,6.411c-1.682-1.577-4.628-3.464-8.996-3.464
		c-6.153,0-11.375,4.059-13.263,9.668c-0.466,1.448-0.75,2.999-0.75,4.602s0.284,3.154,0.775,4.603
		c1.861,5.609,7.083,9.668,13.237,9.668c3.464,0,6.101-0.956,8.065-2.327c3.102-2.172,4.498-5.402,4.756-7.548H28.767v-8.635h21.844
		c0.337,1.448,0.491,2.844,0.491,4.756C51.102,35.797,48.569,41.767,44.174,45.827z"/>
</g>
</svg>
