<?xml version="1.0" encoding="utf-8"?>
<!-- Generator: Adobe Illustrator 15.0.0, SVG Export Plug-In . SVG Version: 6.00 Build 0)  -->
<!DOCTYPE svg PUBLIC "-//W3C//DTD SVG 1.1//EN" "http://www.w3.org/Graphics/SVG/1.1/DTD/svg11.dtd">
<svg version="1.1" id="Livello_1" xmlns="http://www.w3.org/2000/svg" xmlns:xlink="http://www.w3.org/1999/xlink" x="0px" y="0px"
	 width="74px" height="49px" viewBox="0 0 74 49" enable-background="new 0 0 74 49" xml:space="preserve">
<g>
	<path fill="#FFFFFF" d="M24.799,12.806c0.187-0.604,0.7-1.048,1.323-1.147c0.627-0.104,1.249,0.161,1.614,0.675l10.873,15.267
		l4.305-6.661c0.29-0.448,0.778-0.729,1.311-0.756c0.53-0.033,1.045,0.204,1.378,0.62l5.492,6.866l2.086-3.417
		c0.3-0.495,0.838-0.795,1.415-0.795h10.163c1.475-3.082,2.316-6.093,2.196-8.8C66.604,6.856,60.626,0.519,52.816,0.519
		c-7.811,0-14.14,6.331-14.14,14.139c0-7.808-6.33-14.139-14.138-14.139c-7.811,0-13.789,6.338-14.139,14.139
		c-0.104,2.33,0.505,4.888,1.618,7.52l-9.208,0.911c-0.917,0-1.659,0.741-1.659,1.659c0,0.917,1.552,0.75,2.469,0.75h10.042
		c0.016,0.026,0.031,0.052,0.045,0.08h7.142L24.799,12.806z"/>
	<path fill="#FFFFFF" d="M71.189,26.778h-8.246h-5.289h-2.126l-2.834,4.641c-0.282,0.463-0.771,0.756-1.311,0.794
		c-0.037,0.001-0.07,0.001-0.106,0.001c-0.502,0-0.98-0.228-1.297-0.622l-5.529-6.915l-4.38,6.779
		c-0.298,0.462-0.807,0.746-1.356,0.758c-0.584,0.008-1.071-0.248-1.39-0.695L26.98,16.991l-3.324,10.734
		c-0.215,0.697-0.858,1.17-1.585,1.17H15.78c6.492,9.466,17.229,18.281,22.896,19.587C44.07,47.238,54.053,39.2,60.6,30.267
		l10.59-1.16c0.917,0,1.662-0.781,1.662-1.745S72.106,26.778,71.189,26.778z"/>
</g>
</svg>
