<?xml version="1.0" encoding="utf-8"?>
<!-- Generator: Adobe Illustrator 15.0.2, SVG Export Plug-In . SVG Version: 6.00 Build 0)  -->
<!DOCTYPE svg PUBLIC "-//W3C//DTD SVG 1.1//EN" "http://www.w3.org/Graphics/SVG/1.1/DTD/svg11.dtd">
<svg version="1.1" id="fb" xmlns="http://www.w3.org/2000/svg" xmlns:xlink="http://www.w3.org/1999/xlink" x="0px" y="0px"
	 width="56.693px" height="56.693px" viewBox="0 0 56.693 56.693" enable-background="new 0 0 56.693 56.693" xml:space="preserve">
<g>
	<path fill="#FFFFFF" d="M41.335,19.625c-3.738-1.618-7.976-2.49-12.649-2.49c-4.668,0-9.313,0.865-13.048,2.479
		c7.206,0.011,13.043,5.79,13.041,12.92C28.685,25.528,34.313,19.832,41.335,19.625z"/>
	<path fill="#FFFFFF" d="M15.619,22.126c-5.811,0-10.517,4.664-10.517,10.408c0,5.75,4.706,10.404,10.517,10.404
		c5.808,0,10.512-4.654,10.512-10.404C26.131,26.789,21.427,22.126,15.619,22.126z M15.466,38.78c-3.499,0-6.341-2.807-6.341-6.273
		c0-3.469,2.84-6.277,6.341-6.277s6.341,2.808,6.341,6.277C21.806,35.973,18.967,38.78,15.466,38.78z"/>
	<path fill="#FFFFFF" d="M41.742,28.122c-2.426,0-4.392,1.955-4.392,4.354c0,2.404,1.966,4.35,4.392,4.35s4.393-1.945,4.393-4.35
		C46.135,30.077,44.168,28.122,41.742,28.122z"/>
	<path fill="#FFFFFF" d="M15.466,28.161c2.426,0,4.394,1.943,4.394,4.346c0,2.397-1.967,4.342-4.394,4.342
		c-2.427,0-4.394-1.944-4.394-4.342C11.072,30.104,13.039,28.161,15.466,28.161z"/>
	<path fill="#FFFFFF" d="M47.245,0H9.449C4.232,0,0.001,4.231,0.001,9.45v37.793c0,5.219,4.229,9.45,9.448,9.45h37.796
		c5.217,0,9.449-4.231,9.449-9.45V9.45C56.694,4.231,52.466,0,47.245,0z M54.811,32.537c0,7.142-5.856,12.933-13.066,12.933
		c-4.092,0-7.74-1.863-10.137-4.776c-1.05,1.276-2.931,4.052-2.931,4.052c-0.325-0.666-1.942-2.931-2.92-4.059
		c-2.395,2.91-6.045,4.783-10.139,4.783c-7.217,0-13.066-5.791-13.066-12.933c0-2.834,0.932-5.457,2.5-7.588
		c-0.253-1.46-1.253-3.58-2.613-5.157h8.314c4.456-2.964,10.956-4.812,17.933-4.812c6.974,0,13.05,1.848,17.503,4.812h8.734
		c-1.36,1.577-2.362,3.697-2.613,5.157C53.879,27.08,54.811,29.703,54.811,32.537z"/>
	<path fill="#FFFFFF" d="M41.745,22.126c-5.81,0-10.521,4.664-10.521,10.408c0,5.75,4.711,10.404,10.521,10.404
		c5.809,0,10.516-4.654,10.516-10.404C52.26,26.789,47.553,22.126,41.745,22.126z M41.742,38.745c-3.499,0-6.339-2.805-6.339-6.27
		s2.84-6.271,6.339-6.271c3.5,0,6.339,2.806,6.339,6.271S45.242,38.745,41.742,38.745z"/>
</g>
</svg>
